name ./resultDataOpenSim/trcMotMarkerGrf/sub09/grf-02-08.mot
datacolumns 19
datarows 25
range 0.48800000 0.58400000
endheader

                time	     ground_force_vx	     ground_force_vy	     ground_force_vz	     ground_force_px	     ground_force_py	     ground_force_pz	   l_ground_force_vx	   l_ground_force_vy	   l_ground_force_vz	   l_ground_force_px	   l_ground_force_py	   l_ground_force_pz	     ground_torque_x	     ground_torque_y	     ground_torque_z	   l_ground_torque_x	   l_ground_torque_y	   l_ground_torque_z	
          0.48800000	         28.31649280	        424.79452119	        -23.67329695	         -0.65780368	          0.00000000	          0.10416684	          0.00000000	          0.00000000	          0.00000000	          0.00000000	          0.00000000	          0.00000000	          0.00000000	          4.08464014	          0.00000000	          0.00000000	          0.00000000	          0.00000000	
          0.49200000	         32.26460976	        430.44021538	        -23.19101413	         -0.65717158	          0.00000000	          0.10423954	          0.00000000	          0.00000000	          0.00000000	          0.00000000	          0.00000000	          0.00000000	          0.00000000	          4.46509392	          0.00000000	          0.00000000	          0.00000000	          0.00000000	
          0.49600000	         36.03445433	        436.72949667	        -22.97480907	         -0.65648104	          0.00000000	          0.10424808	          0.00000000	          0.00000000	          0.00000000	          0.00000000	          0.00000000	          0.00000000	          0.00000000	          4.79168046	          0.00000000	          0.00000000	          0.00000000	          0.00000000	
          0.50000000	         39.62417466	        443.72673874	        -23.10716981	         -0.65573455	          0.00000000	          0.10417711	          0.00000000	          0.00000000	          0.00000000	          0.00000000	          0.00000000	          0.00000000	          0.00000000	          5.03298184	          0.00000000	          0.00000000	          0.00000000	          0.00000000	
          0.50400000	         43.09853125	        451.48788024	        -23.55891033	         -0.65495822	          0.00000000	          0.10401534	          0.00000000	          0.00000000	          0.00000000	          0.00000000	          0.00000000	          0.00000000	          0.00000000	          5.18143453	          0.00000000	          0.00000000	          0.00000000	          0.00000000	
          0.50800000	         46.57332459	        460.05447567	        -24.21391680	         -0.65418771	          0.00000000	          0.10377385	          0.00000000	          0.00000000	          0.00000000	          0.00000000	          0.00000000	          0.00000000	          0.00000000	          5.25514539	          0.00000000	          0.00000000	          0.00000000	          0.00000000	
          0.51200000	         50.17825937	        469.47248719	        -24.88907199	         -0.65344883	          0.00000000	          0.10345530	          0.00000000	          0.00000000	          0.00000000	          0.00000000	          0.00000000	          0.00000000	          0.00000000	          5.29311960	          0.00000000	          0.00000000	          0.00000000	          0.00000000	
          0.51600000	         54.01588112	        479.81351424	        -25.37243065	         -0.65277550	          0.00000000	          0.10306257	          0.00000000	          0.00000000	          0.00000000	          0.00000000	          0.00000000	          0.00000000	          0.00000000	          5.34490317	          0.00000000	          0.00000000	          0.00000000	          0.00000000	
          0.52000000	         58.13464259	        491.17033386	        -25.47760603	         -0.65219229	          0.00000000	          0.10260944	          0.00000000	          0.00000000	          0.00000000	          0.00000000	          0.00000000	          0.00000000	          0.00000000	          5.45727864	          0.00000000	          0.00000000	          0.00000000	          0.00000000	
          0.52400000	         62.52173948	        503.62038616	        -25.09108204	         -0.65171057	          0.00000000	          0.10211550	          0.00000000	          0.00000000	          0.00000000	          0.00000000	          0.00000000	          0.00000000	          0.00000000	          5.66151060	          0.00000000	          0.00000000	          0.00000000	          0.00000000	
          0.52800000	         67.10858401	        517.17303012	        -24.20985198	         -0.65131428	          0.00000000	          0.10160704	          0.00000000	          0.00000000	          0.00000000	          0.00000000	          0.00000000	          0.00000000	          0.00000000	          5.96443457	          0.00000000	          0.00000000	          0.00000000	          0.00000000	
          0.53200000	         71.78381311	        531.73612935	        -22.96140183	         -0.65095117	          0.00000000	          0.10111432	          0.00000000	          0.00000000	          0.00000000	          0.00000000	          0.00000000	          0.00000000	          0.00000000	          6.34553858	          0.00000000	          0.00000000	          0.00000000	          0.00000000	
          0.53600000	         76.41748489	        547.12669156	        -21.59094214	         -0.65056174	          0.00000000	          0.10066289	          0.00000000	          0.00000000	          0.00000000	          0.00000000	          0.00000000	          0.00000000	          0.00000000	          6.76051678	          0.00000000	          0.00000000	          0.00000000	          0.00000000	
          0.54000000	         80.89416486	        563.11134984	        -20.41805194	         -0.65010899	          0.00000000	          0.10027187	          0.00000000	          0.00000000	          0.00000000	          0.00000000	          0.00000000	          0.00000000	          0.00000000	          7.15017534	          0.00000000	          0.00000000	          0.00000000	          0.00000000	
          0.54400000	         85.13984656	        579.44178100	        -19.77110208	         -0.64958637	          0.00000000	          0.09995356	          0.00000000	          0.00000000	          0.00000000	          0.00000000	          0.00000000	          0.00000000	          0.00000000	          7.45251664	          0.00000000	          0.00000000	          0.00000000	          0.00000000	
          0.54800000	         89.13434770	        595.86503328	        -19.91195534	         -0.64900999	          0.00000000	          0.09971192	          0.00000000	          0.00000000	          0.00000000	          0.00000000	          0.00000000	          0.00000000	          0.00000000	          7.61541342	          0.00000000	          0.00000000	          0.00000000	          0.00000000	
          0.55200000	         92.91476043	        612.12123057	        -20.97244765	         -0.64840262	          0.00000000	          0.09954137	          0.00000000	          0.00000000	          0.00000000	          0.00000000	          0.00000000	          0.00000000	          0.00000000	          7.60735470	          0.00000000	          0.00000000	          0.00000000	          0.00000000	
          0.55600000	         96.57340058	        627.95144768	        -22.91875893	         -0.64778334	          0.00000000	          0.09942733	          0.00000000	          0.00000000	          0.00000000	          0.00000000	          0.00000000	          0.00000000	          0.00000000	          7.42415039	          0.00000000	          0.00000000	          0.00000000	          0.00000000	
          0.56000000	        100.24640294	        643.11853840	        -25.55006452	         -0.64716775	          0.00000000	          0.09935037	          0.00000000	          0.00000000	          0.00000000	          0.00000000	          0.00000000	          0.00000000	          0.00000000	          7.09018592	          0.00000000	          0.00000000	          0.00000000	          0.00000000	
          0.56400000	        104.09047165	        657.42802828	        -28.53356087	         -0.64656922	          0.00000000	          0.09929004	          0.00000000	          0.00000000	          0.00000000	          0.00000000	          0.00000000	          0.00000000	          0.00000000	          6.65384277	          0.00000000	          0.00000000	          0.00000000	          0.00000000	
          0.56800000	        108.25231651	        670.73903682	        -31.46781776	         -0.64600038	          0.00000000	          0.09922686	          0.00000000	          0.00000000	          0.00000000	          0.00000000	          0.00000000	          0.00000000	          0.00000000	          6.17795010	          0.00000000	          0.00000000	          0.00000000	          0.00000000	
          0.57200000	        112.83732573	        682.96459599	        -33.95692412	         -0.64547419	          0.00000000	          0.09914467	          0.00000000	          0.00000000	          0.00000000	          0.00000000	          0.00000000	          0.00000000	          0.00000000	          5.72730764	          0.00000000	          0.00000000	          0.00000000	          0.00000000	
          0.57600000	        117.88387601	        694.06293976	        -35.68156849	         -0.64499560	          0.00000000	          0.09903001	          0.00000000	          0.00000000	          0.00000000	          0.00000000	          0.00000000	          0.00000000	          0.00000000	          5.35603491	          0.00000000	          0.00000000	          0.00000000	          0.00000000	
          0.58000000	        123.35481714	        704.01935039	        -36.45639247	         -0.64455645	          0.00000000	          0.09887416	          0.00000000	          0.00000000	          0.00000000	          0.00000000	          0.00000000	          0.00000000	          0.00000000	          5.09751885	          0.00000000	          0.00000000	          0.00000000	          0.00000000	
          0.58400000	        129.15336625	        712.82684196	        -36.25960922	         -0.64413652	          0.00000000	          0.09867509	          0.00000000	          0.00000000	          0.00000000	          0.00000000	          0.00000000	          0.00000000	          0.00000000	          4.95906764	          0.00000000	          0.00000000	          0.00000000	          0.00000000	
